Coordinates
version=1
nRows=8
nColumns=40
inDegrees=yes

Units are S.I. units (second, meters, Newtons, ...)
Angles are in degrees.

endheader
time	pelvis_tilt	pelvis_list	pelvis_rotation	pelvis_tx	pelvis_ty	pelvis_tz	hip_flexion_r	hip_adduction_r	hip_rotation_r	knee_angle_r	knee_angle_r_beta	ankle_angle_r	subtalar_angle_r	mtp_angle_r	hip_flexion_l	hip_adduction_l	hip_rotation_l	knee_angle_l	knee_angle_l_beta	ankle_angle_l	subtalar_angle_l	mtp_angle_l	lumbar_extension	lumbar_bending	lumbar_rotation	arm_flex_r	arm_add_r	arm_rot_r	elbow_flex_r	pro_sup_r	wrist_flex_r	wrist_dev_r	arm_flex_l	arm_add_l	arm_rot_l	elbow_flex_l	pro_sup_l	wrist_flex_l	wrist_dev_l
      4.37778571	     -3.81195495	     -5.96620398	      4.54327460	      1.04162752	      0.92791366	      0.49754487	      5.53406859	      4.39800408	    -17.52787328	     13.12607826	     13.12607826	     14.53076159	      7.70246565	     -3.92467997	     30.15436543	     -9.92369777	     -3.11011654	     23.41588777	     23.41588777	      7.92255212	     -8.57590766	      7.43459717	    -11.05927874	      6.87053774	      2.11661882	     33.71326323	    -18.73485982	      3.83898961	     71.40669608	     44.53922565	      0.00000000	      0.00000000	     26.62134251	    -10.52280416	      6.99575348	     27.59036059	     45.74652379	      0.00000000	      0.00000000
      4.39057143	     -3.68937457	     -6.03167814	      4.37409743	      1.04231237	      0.92715831	      0.49572595	      5.04780909	      4.38043700	    -17.27655745	     13.25235288	     13.25235288	     15.01023910	      7.69486647	     -4.04532669	     29.54687312	     -9.82454778	     -3.03740567	     24.02688210	     24.02688210	      7.82254405	     -8.79075778	      7.34676572	    -10.86288219	      6.87373857	      2.00951980	     33.30860401	    -18.86509832	      3.80576222	     71.27949986	     44.54478847	      0.00000000	      0.00000000	     26.41624493	    -10.66635408	      6.97647158	     27.53061294	     45.74577148	      0.00000000	      0.00000000
      4.40335714	     -3.48941607	     -6.06899307	      4.18392805	      1.04329162	      0.92644255	      0.49381514	      4.49203949	      4.32597834	    -16.99274843	     13.45190624	     13.45190624	     15.41758008	      7.58836667	     -4.09195649	     28.88140769	     -9.70204353	     -2.86433421	     24.71063744	     24.71063744	      7.80258428	     -9.05037468	      7.17664273	    -10.72753071	      6.80131266	      1.91545905	     32.72662029	    -19.03225565	      3.74958414	     71.09530436	     44.55296659	      0.00000000	      0.00000000	     26.15610336	    -10.86801412	      6.94593665	     27.46453398	     45.74573188	      0.00000000	      0.00000000
      4.41614286	     -3.32880459	     -6.09192529	      4.01070665	      1.04431333	      0.92571211	      0.49179134	      3.98465696	      4.24580855	    -16.66772843	     13.65914037	     13.65914037	     15.85420977	      7.41389154	     -4.10944033	     28.22894423	     -9.55072364	     -2.66565463	     25.25046157	     25.25046157	      7.80632146	     -9.27172238	      7.00182801	    -10.55047117	      6.70249061	      1.76982402	     32.06758939	    -19.23370076	      3.65780089	     70.89452795	     44.56254574	      0.00000000	      0.00000000	     25.88912238	    -11.06198076	      6.91304699	     27.40313047	     45.74597536	      0.00000000	      0.00000000
      4.42892857	     -3.20684014	     -6.09247177	      3.84853533	      1.04541021	      0.92501563	      0.48964370	      3.51480231	      4.12947295	    -16.31731063	     13.86717998	     13.86717998	     16.31166327	      7.25464015	     -4.14880300	     27.60777162	     -9.37323656	     -2.46846056	     25.66667765	     25.66667765	      7.91209015	     -9.46390314	      6.82798432	    -10.33619054	      6.58738682	      1.52769132	     31.35389029	    -19.45823162	      3.55578047	     70.68053801	     44.57186711	      0.00000000	      0.00000000	     25.60433760	    -11.24774229	      6.87961594	     27.32327189	     45.74605832	      0.00000000	      0.00000000
      4.44171429	     -3.04650612	     -6.01316673	      3.68002881	      1.04636478	      0.92455898	      0.48748177	      3.31216500	      3.95980760	    -15.24653360	     14.67623029	     14.67623029	     17.44490134	      5.77821153	     -1.59466537	     26.88198622	     -9.02332430	     -1.97687416	     25.77895220	     25.77895220	      7.02350552	    -10.70257397	      4.86493986	    -10.25780977	      6.28869764	      1.86848770	     29.79198174	    -19.55914030	      1.46312881	     71.06596659	     44.67078067	      0.00000000	      0.00000000	     25.55217864	    -11.25649766	      6.87797384	     27.58587062	     45.74819572	      0.00000000	      0.00000000
      4.45450000	     -2.93349972	     -5.82074388	      3.53515596	      1.04729783	      0.92417433	      0.48500657	      3.15039542	      3.51348789	    -14.96169596	     15.46509848	     15.46509848	     17.92365173	      5.46826735	     -1.50153638	     26.31117497	     -8.64237110	     -1.83993990	     26.04769948	     26.04769948	      7.14032315	    -11.11032446	      4.57161977	    -10.09478700	      5.92374302	      1.69699536	     28.72953092	    -19.88883048	      1.21095879	     70.70895255	     44.69727034	      0.00000000	      0.00000000	     25.32303610	    -11.42876886	      6.85870715	     27.45683393	     45.74821628	      0.00000000	      0.00000000
      4.46728571	     -2.76709205	     -5.67399304	      3.45500981	      1.04816071	      0.92407145	      0.48240087	      2.91296779	      3.12596183	    -14.67318993	     16.17488818	     16.17488818	     18.22549092	      5.09749271	     -1.44970336	     25.77999040	     -8.30805458	     -1.67626291	     26.36296036	     26.36296036	      7.38745771	    -11.50330594	      4.33367587	    -10.02446414	      5.61222525	      1.38079070	     27.61544599	    -20.09522603	      0.95771683	     70.36991129	     44.71769026	      0.00000000	      0.00000000	     25.09312929	    -11.69695924	      6.80924458	     27.34733984	     45.75240882	      0.00000000	      0.00000000
